<?xml version="1.0" encoding="UTF-8" standalone="no"?>
<svg
   width="1920"
   height="540"
   viewBox="0 0 1920 540"
   fill="none"
   version="1.1"
   id="svg16"
   sodipodi:docname="logo_transparent.svg"
   inkscape:version="1.3.2 (091e20e, 2023-11-25)"
   xmlns:inkscape="http://www.inkscape.org/namespaces/inkscape"
   xmlns:sodipodi="http://sodipodi.sourceforge.net/DTD/sodipodi-0.dtd"
   xmlns="http://www.w3.org/2000/svg"
   xmlns:svg="http://www.w3.org/2000/svg">
  <sodipodi:namedview
     id="namedview16"
     pagecolor="#ffffff"
     bordercolor="#000000"
     borderopacity="0.25"
     inkscape:showpageshadow="2"
     inkscape:pageopacity="0.0"
     inkscape:pagecheckerboard="0"
     inkscape:deskcolor="#d1d1d1"
     inkscape:zoom="0.34479167"
     inkscape:cx="961.45015"
     inkscape:cy="269.7281"
     inkscape:window-width="1312"
     inkscape:window-height="449"
     inkscape:window-x="0"
     inkscape:window-y="15"
     inkscape:window-maximized="0"
     inkscape:current-layer="svg16" />
  <g
     clip-path="url(#clip0_2_2)"
     id="g16">
    <path
       d="M408.681 267.6C408.681 265.906 408.399 264.495 408.399 262.801C408.399 262.518 408.399 262.236 408.399 261.954C408.116 260.26 407.834 258.848 407.552 257.154C407.552 256.872 407.552 256.589 407.269 256.307C406.987 254.895 406.423 253.484 406.14 251.79C405.858 251.225 405.858 250.943 405.576 250.378C405.011 248.966 404.729 247.837 404.164 246.425C403.882 245.861 403.6 245.296 403.317 244.731C403.035 244.167 402.753 243.602 402.47 243.038C402.188 242.473 401.906 241.908 401.624 241.344C401.341 240.497 400.777 239.932 400.494 239.085C399.93 238.238 399.365 237.109 398.801 236.262C398.236 235.415 397.671 234.85 397.389 234.003C396.825 233.156 395.978 232.309 395.413 231.462C394.849 230.615 394.284 230.05 393.437 229.203C392.873 228.356 392.026 227.792 391.461 226.945C390.614 226.098 390.05 225.533 389.203 224.968C388.638 224.404 387.791 223.839 387.227 223.274C386.38 222.427 385.533 221.863 384.686 221.298C384.121 220.733 383.275 220.451 382.71 219.886C381.863 219.322 380.734 218.475 379.605 217.91C379.04 217.628 378.193 217.063 377.629 216.781C377.064 216.499 376.499 216.216 375.935 215.934L210.229 133.494C209.664 133.211 209.099 132.929 208.253 132.647C207.406 132.364 206.559 131.8 205.712 131.517C204.865 131.235 203.736 130.67 202.607 130.388C202.042 130.106 201.195 129.823 200.348 129.541C199.219 129.259 198.09 128.976 196.679 128.694C196.114 128.412 195.267 128.412 194.703 128.129C193.291 127.847 191.88 127.565 190.468 127.565C189.904 127.565 189.339 127.565 189.057 127.282C187.363 127 185.669 127 183.975 127C183.693 127 183.411 127 183.128 127H182.846C181.152 127 179.741 127 178.33 127.282C177.765 127.282 177.2 127.282 176.636 127.282C175.507 127.282 174.095 127.565 172.966 127.847C172.119 127.847 171.272 128.129 170.425 128.412C169.578 128.694 168.732 128.976 167.602 128.976C166.473 129.259 165.626 129.541 164.497 129.823C164.215 129.823 164.215 129.823 163.933 129.823C163.368 130.106 162.521 130.388 161.956 130.67C160.827 130.953 159.98 131.517 159.134 131.8C158.004 132.364 156.875 132.929 155.746 133.494C155.181 133.776 154.617 134.058 154.052 134.341C152.641 135.188 151.229 136.035 149.818 136.882C149.536 136.882 149.536 137.164 149.253 137.164C144.737 140.552 140.784 144.222 137.115 148.739C137.115 149.022 136.832 149.022 136.832 149.304C135.985 150.433 134.856 151.563 134.009 152.974C133.727 153.257 133.445 153.539 133.163 154.104C132.598 155.233 131.751 156.08 131.187 157.209C130.904 158.056 130.34 158.621 130.057 159.468C129.775 159.75 129.775 160.033 129.493 160.315C129.21 160.88 128.928 161.444 128.646 162.009C128.081 162.856 127.799 163.985 127.234 164.832C126.952 165.679 126.67 166.526 126.388 167.373C126.105 168.502 125.823 169.349 125.541 170.479C125.258 171.326 124.976 172.455 124.694 173.302C124.411 174.149 124.129 175.278 124.129 176.125C123.847 177.255 123.847 178.102 123.565 179.231C123.565 180.078 123.282 181.207 123.282 182.054C123.282 183.184 123.282 184.031 123 185.16C123 185.725 123 186.572 123 187.136V352.864C123 353.428 123 354.275 123 354.84C123 355.969 123 356.816 123.282 357.946C123.282 358.793 123.565 359.922 123.565 360.769C123.565 361.898 123.847 362.745 124.129 363.875C124.411 364.722 124.411 365.851 124.694 366.698C124.976 367.545 125.258 368.674 125.541 369.521C125.823 370.651 126.105 371.498 126.388 372.627C126.67 373.474 126.952 374.321 127.234 375.168C127.517 376.015 128.081 377.144 128.646 377.991C128.928 378.556 129.21 379.12 129.493 379.685C129.775 379.967 130.057 380.532 130.057 380.814C130.34 381.097 130.34 381.379 130.622 381.944C140.22 399.166 157.158 410.459 176.636 412.718C176.918 412.718 177.2 412.718 177.765 412.718C179.741 413 181.435 413 183.411 413C183.975 413 184.54 413 185.105 413C186.798 413 188.21 413 189.904 412.718C190.75 412.718 191.88 412.435 192.726 412.153C193.856 411.871 194.985 411.871 196.114 411.588C196.961 411.306 198.09 411.024 198.937 410.741C200.066 410.459 201.195 410.177 202.324 409.612C203.171 409.33 204.018 409.047 204.865 408.765C205.994 408.2 207.406 407.636 208.535 407.071C209.099 406.789 209.664 406.789 209.946 406.506L373.677 324.631L375.088 323.784C375.653 323.501 376.499 322.937 377.064 322.654C378.193 322.09 379.04 321.525 379.887 320.96C381.581 319.831 383.275 318.702 384.968 317.573C386.38 316.443 387.791 315.314 389.203 313.902C390.614 312.773 391.743 311.361 393.155 309.95C393.437 309.385 394.002 309.103 394.284 308.538C395.131 307.691 395.695 306.844 396.542 305.715C396.825 305.15 397.389 304.868 397.672 304.303C398.518 302.891 399.365 301.762 400.212 300.35C400.494 299.786 400.777 299.221 401.059 298.656C401.341 298.092 401.624 297.527 401.906 296.962C402.188 296.68 402.188 296.398 402.47 295.833C403.035 294.704 403.317 293.857 403.882 292.728C404.164 291.881 404.729 291.034 405.011 289.904C405.011 289.622 405.293 289.057 405.576 288.775C405.858 288.21 405.858 287.646 406.14 287.081C406.423 285.952 406.705 285.105 406.987 283.975C407.269 283.128 407.552 281.999 407.552 281.152C407.834 280.305 407.834 279.458 408.116 278.611C408.399 277.482 408.399 276.352 408.399 274.941C408.399 274.376 408.399 273.529 408.681 272.964C408.681 271.553 408.681 270.141 408.681 268.73C408.681 268.447 408.681 268.165 408.681 267.6ZM151.229 187.136C151.229 186.854 151.229 186.572 151.229 186.289C151.229 185.725 151.229 185.16 151.229 184.595C151.229 184.031 151.229 183.748 151.512 183.184C151.512 182.619 151.794 182.054 151.794 181.49C151.794 180.925 152.076 180.643 152.076 180.078C152.076 179.513 152.359 178.949 152.359 178.384C152.641 177.819 152.641 177.255 152.923 176.972C153.205 176.408 153.205 175.843 153.488 175.561C153.77 174.996 153.77 174.714 154.052 174.149C154.335 173.584 154.617 173.02 154.899 172.737C155.181 172.455 155.181 171.89 155.464 171.608C155.746 171.043 156.028 170.479 156.593 169.914C156.593 169.632 156.875 169.632 157.158 169.349C157.722 168.785 158.004 167.938 158.569 167.373C158.569 167.373 158.569 167.373 158.851 167.091C160.827 164.832 163.086 162.856 165.626 161.162C165.626 161.162 165.909 161.162 165.909 160.88C166.755 160.315 167.32 160.033 168.167 159.468C168.449 159.186 168.732 159.186 169.014 158.903C169.578 158.621 170.143 158.339 170.708 158.056C171.272 157.774 171.837 157.774 172.401 157.492C172.684 157.209 173.248 157.209 173.531 156.927C174.942 156.362 176.353 156.08 178.047 155.798C178.33 155.798 178.894 155.798 179.176 155.515C180.588 155.233 181.999 155.233 183.128 155.233C183.411 155.233 183.411 155.233 183.693 155.233C184.54 155.233 185.387 155.233 185.951 155.233C186.234 155.233 186.516 155.233 187.081 155.233C187.645 155.233 188.21 155.515 188.774 155.515C189.339 155.515 189.904 155.798 190.468 155.798C191.033 155.798 191.597 156.08 191.88 156.08C192.444 156.362 193.009 156.362 193.856 156.645C194.42 156.927 194.703 156.927 195.267 157.209C195.832 157.492 196.679 157.774 197.243 158.056C208.253 163.138 215.875 174.149 215.875 187.136V239.085V269.294L214.463 269.859L156.311 298.939C154.617 299.786 152.923 300.915 151.229 301.762V238.238V187.136ZM243.257 358.793L197.808 381.661C197.525 381.661 197.243 381.944 196.961 381.944C196.396 382.226 195.549 382.508 194.985 382.791C194.42 383.073 194.138 383.073 193.573 383.355C193.009 383.638 192.444 383.638 191.88 383.92C191.315 384.202 190.75 384.202 190.186 384.202C189.621 384.202 189.057 384.485 188.492 384.485C187.927 384.485 187.363 384.767 186.798 384.767C186.234 384.767 185.669 384.767 185.105 384.767C184.54 384.767 183.975 384.767 183.411 384.767H183.128C181.999 384.767 180.87 384.767 179.741 384.485C179.176 384.485 178.894 384.485 178.33 384.202C177.483 383.92 176.636 383.92 175.789 383.638C175.224 383.638 174.942 383.355 174.377 383.355C173.248 383.073 172.119 382.508 171.272 382.226C170.708 381.944 170.143 381.661 169.578 381.379C169.014 381.097 168.449 380.814 168.167 380.532C167.602 380.25 167.038 379.685 166.191 379.403C165.909 379.12 165.344 378.838 165.062 378.556C163.933 377.709 163.086 376.862 162.239 376.015C161.956 375.732 161.392 375.168 161.11 374.885C160.545 374.321 160.263 374.038 159.698 373.474C159.134 372.909 158.851 372.345 158.287 371.78C158.004 371.498 157.722 370.933 157.44 370.651C156.875 369.521 156.028 368.392 155.464 367.263C155.181 366.698 154.899 366.416 154.899 365.851C154.617 365.286 154.335 365.004 154.335 364.439C154.052 363.875 154.052 363.31 153.77 362.745C153.488 362.181 153.488 361.898 153.205 361.334C152.923 360.769 152.923 360.204 152.641 359.357C152.641 359.075 152.359 358.51 152.359 358.228C152.359 357.381 152.076 356.816 152.076 355.969C152.076 355.687 152.076 355.405 152.076 355.122C152.076 354.275 152.076 353.428 152.076 352.581C152.076 352.299 152.076 351.734 152.076 351.452V351.17C152.076 348.064 152.641 344.959 153.77 341.853C156.593 333.665 162.239 327.172 169.861 323.219L216.439 300.068L244.668 285.952L246.645 285.105L317.218 321.807L243.257 358.793ZM372.547 291.598C372.265 291.881 371.983 292.163 371.7 292.445C371.136 293.01 370.289 293.857 369.724 294.422C369.442 294.704 369.16 294.986 368.595 295.268C367.748 295.833 366.902 296.398 366.055 296.962C365.49 297.245 364.925 297.809 364.079 298.092C359.28 300.633 354.198 302.044 348.552 302.044C343.471 302.044 338.672 300.915 334.155 298.656L276.85 270.141L245.515 254.331L243.539 253.484V187.136C243.539 185.16 243.539 183.184 243.257 181.207L317.218 218.192L362.949 241.344C363.514 241.626 364.361 242.191 364.925 242.473C365.208 242.473 365.208 242.755 365.49 242.755C366.619 243.602 367.748 244.167 368.878 245.014L369.16 245.296C370.007 246.143 370.854 246.708 371.7 247.555C371.983 247.837 372.265 248.119 372.547 248.402C373.394 249.249 374.241 250.378 375.088 251.507C375.088 251.79 375.37 251.79 375.37 252.072C375.935 252.919 376.782 254.048 377.346 255.178C377.629 255.742 377.911 256.025 378.193 256.589C378.476 256.872 378.476 257.154 378.758 257.436C379.04 258.001 379.322 258.848 379.605 259.413C379.605 259.695 379.887 259.977 379.887 260.26C380.169 261.107 380.452 261.671 380.452 262.518C380.452 262.801 380.452 262.801 380.452 263.083C380.734 263.93 380.734 264.777 381.016 265.624C381.016 265.906 381.016 265.906 381.016 266.189C381.016 267.036 381.298 267.883 381.298 268.73C381.298 269.012 381.298 269.294 381.298 269.576C381.298 270.423 381.298 270.988 381.298 271.835C381.298 272.117 381.298 272.682 381.298 272.964C381.298 273.529 381.298 274.094 381.016 274.658C381.016 275.223 380.734 275.788 380.734 276.07C380.734 276.635 380.452 276.917 380.452 277.482C380.452 278.046 380.169 278.611 379.887 279.176C379.887 279.74 379.605 280.023 379.322 280.587C379.04 281.152 379.04 281.717 378.758 281.999C378.476 282.564 378.193 283.128 378.193 283.693C377.911 283.975 377.911 284.258 377.629 284.822C377.064 285.952 376.499 287.081 375.653 288.21C375.653 288.21 375.653 288.493 375.37 288.493C374.241 289.622 373.394 290.469 372.547 291.598Z"
       fill="#F45A2D"
       id="path1" />
    <path
       d="M894.79 182.619C891.12 182.619 887.733 181.207 884.91 178.666C882.087 175.843 880.958 172.737 880.958 168.785C880.958 164.832 882.369 161.727 884.91 159.186C887.451 156.645 890.838 155.233 894.79 155.233C898.46 155.233 901.848 156.645 904.388 159.186C906.929 161.727 908.34 165.115 908.34 168.785C908.34 172.455 906.929 175.843 904.388 178.666C901.848 181.207 898.46 182.619 894.79 182.619Z"
       fill="#F45A2D"
       id="path2" />
    <path
       d="M894.79 185.442C890.274 185.442 886.321 183.748 882.934 180.643C879.546 177.255 878.135 173.302 878.135 168.785C878.135 164.267 879.829 160.315 882.934 156.927C886.321 153.821 890.274 152.127 894.79 152.127C899.307 152.127 903.259 153.821 906.364 156.927C909.752 160.033 911.163 163.985 911.163 168.785C911.163 173.302 909.469 177.255 906.364 180.643C903.259 183.748 899.307 185.442 894.79 185.442ZM894.79 157.774C891.685 157.774 889.144 158.903 886.886 160.88C884.628 163.138 883.498 165.679 883.498 168.502C883.498 171.608 884.628 174.149 886.886 176.408C889.144 178.666 891.685 179.796 894.79 179.796C897.613 179.796 900.154 178.666 902.412 176.408C904.671 174.149 905.8 171.608 905.8 168.502C905.8 165.397 904.671 162.856 902.412 160.88C900.436 158.903 897.895 157.774 894.79 157.774Z"
       fill="#F45A2D"
       id="path3" />
    <path
       d="M1502.85 182.619C1499.18 182.619 1495.79 181.207 1492.97 178.666C1490.15 175.843 1489.02 172.737 1489.02 168.785C1489.02 164.832 1490.43 161.727 1492.97 159.186C1495.51 156.645 1498.9 155.233 1502.85 155.233C1506.52 155.233 1509.91 156.645 1512.45 159.186C1514.99 161.727 1516.4 165.115 1516.4 168.785C1516.4 172.455 1514.99 175.843 1512.45 178.666C1509.91 181.207 1506.52 182.619 1502.85 182.619Z"
       fill="#F45A2D"
       id="path4" />
    <path
       d="M1502.85 185.442C1498.33 185.442 1494.38 183.748 1490.99 180.643C1487.61 177.255 1486.19 173.302 1486.19 168.785C1486.19 164.267 1487.89 160.315 1490.99 156.927C1494.38 153.821 1498.33 152.127 1502.85 152.127C1507.37 152.127 1511.32 153.821 1514.42 156.927C1517.81 160.033 1519.22 163.985 1519.22 168.785C1519.22 173.302 1517.53 177.255 1514.42 180.643C1511.32 183.748 1507.37 185.442 1502.85 185.442ZM1502.85 157.774C1499.75 157.774 1497.2 158.903 1494.95 160.88C1492.69 163.138 1491.56 165.679 1491.56 168.502C1491.56 171.608 1492.69 174.149 1494.95 176.408C1497.2 178.666 1499.75 179.796 1502.85 179.796C1505.67 179.796 1508.21 178.666 1510.47 176.408C1512.73 174.149 1513.86 171.608 1513.86 168.502C1513.86 165.397 1512.73 162.856 1510.47 160.88C1508.21 158.903 1505.67 157.774 1502.85 157.774Z"
       fill="#F45A2D"
       id="path5" />
    <path
       d="M561.966 204.923C544.182 204.923 529.22 210.852 517.928 222.427C506.354 234.003 500.426 249.531 500.426 268.447C500.426 281.152 503.249 292.445 508.613 302.044C513.976 311.644 521.598 319.267 530.914 324.348C540.23 329.43 550.675 331.971 562.249 331.971C580.033 331.971 594.995 326.042 606.286 314.467C617.86 302.891 623.789 287.363 623.789 268.447C623.789 249.531 617.86 234.003 606.569 222.427C594.712 210.57 579.751 204.923 561.966 204.923ZM597.535 268.165C597.535 280.305 594.148 290.469 587.373 297.809C580.598 305.15 572.129 308.82 561.966 308.82C551.804 308.82 543.335 305.15 536.842 297.809C530.067 290.469 526.68 280.305 526.68 268.165C526.68 256.025 530.067 246.143 536.842 238.52C543.617 231.18 551.804 227.509 561.966 227.509C572.411 227.509 580.598 231.18 587.373 238.52C594.148 246.143 597.535 256.025 597.535 268.165Z"
       fill="white"
       id="path6" />
    <path
       d="M754.773 221.863C749.691 216.498 743.481 212.264 736.424 209.158C729.366 206.052 722.027 204.641 714.122 204.641C704.524 204.641 695.773 206.899 687.869 211.699C683.07 214.804 678.836 218.475 675.448 222.71L675.166 206.899H649.76V387.873H676.013V313.902C679.4 318.137 683.635 321.807 688.434 324.631C696.056 329.43 704.807 331.689 714.122 331.689C730.213 331.689 744.046 325.76 754.773 314.185C765.782 302.609 771.146 287.081 771.146 268.165C771.146 258.848 769.734 250.096 766.629 241.908C764.088 234.285 760.136 227.509 754.773 221.863ZM745.457 268.165C745.457 280.305 742.069 290.187 735.294 297.245C728.519 304.585 720.333 308.256 710.453 308.256C700.29 308.256 692.104 304.585 685.046 296.962C678.271 289.34 674.601 279.74 674.601 268.165C674.601 256.872 677.989 247.272 685.046 239.65C692.104 232.027 700.29 228.356 710.453 228.356C720.333 228.356 728.519 232.027 735.294 239.085C742.069 246.425 745.457 256.307 745.457 268.165Z"
       fill="white"
       id="path7" />
    <path
       d="M830.71 168.22H806.15V192.218C806.15 197.865 805.021 201.817 803.045 204.076C801.069 206.052 797.399 207.182 792.318 207.182H780.744V229.203H804.456V294.986C804.456 305.715 807.562 314.185 813.49 320.396C819.418 326.607 827.887 329.713 838.332 329.713H857.528V307.691H843.977C840.025 307.691 836.638 306.562 834.379 304.021C831.839 301.48 830.71 297.809 830.71 293.01V229.203H857.528V207.182H830.71V168.22Z"
       fill="white"
       id="path8" />
    <path
       d="M907.776 207.182H881.522V329.43H907.776V207.182Z"
       fill="white"
       id="path9" />
    <path
       d="M1065.86 204.923C1057.96 204.923 1050.9 206.617 1044.69 210.287C1039.89 213.111 1035.65 216.781 1032.27 221.298C1029.44 216.781 1025.49 212.828 1020.41 210.287C1014.2 206.899 1007.14 204.923 998.956 204.923C991.617 204.923 984.842 206.617 978.914 209.723C975.526 211.699 972.421 213.958 969.88 216.781V207.182H943.627V329.43H969.88V255.178C969.88 245.861 971.856 238.803 976.091 234.568C980.043 230.05 985.124 228.074 991.617 228.074C997.545 228.074 1002.34 230.05 1006.01 234.003C1009.68 237.956 1011.66 243.884 1011.66 251.79V329.43H1038.2V254.331C1038.2 245.296 1040.17 238.52 1044.12 234.285C1048.08 230.05 1053.16 227.792 1059.93 227.792C1065.86 227.792 1070.38 229.768 1074.05 233.438C1077.72 237.109 1079.69 243.037 1079.69 250.66V329.148H1105.95V245.296C1105.95 232.591 1102.28 222.71 1094.65 215.369C1087.6 208.311 1078 204.923 1065.86 204.923Z"
       fill="white"
       id="path10" />
    <path
       d="M1191.2 204.923C1173.7 204.923 1159.02 210.57 1148.01 222.145C1136.72 233.438 1131.07 248.966 1131.07 268.447C1131.07 287.928 1136.72 303.456 1148.01 314.749C1159.3 326.042 1173.98 331.971 1192.05 331.971C1204.18 331.971 1214.91 328.866 1224.51 322.372C1234.11 315.879 1241.16 307.126 1245.4 296.115L1246.53 293.01L1222.53 287.928L1221.69 289.904C1218.86 295.833 1214.63 300.633 1209.55 304.021C1204.18 307.409 1198.26 309.103 1191.76 309.103C1181.88 309.103 1173.7 305.997 1167.2 299.503C1161.28 293.575 1157.89 285.387 1157.04 274.658H1247.94L1248.22 266.471C1248.22 246.99 1242.86 231.744 1232.7 221.298C1221.97 210.287 1208.14 204.923 1191.2 204.923ZM1158.17 252.919C1159.86 244.731 1163.53 238.238 1168.9 234.003C1174.83 228.921 1182.45 226.38 1191.2 226.38C1199.95 226.38 1207.01 228.921 1212.37 234.003C1217.17 238.52 1220.27 244.731 1221.4 253.201H1158.17V252.919Z"
       fill="white"
       id="path11" />
    <path
       d="M1325.29 204.923C1307.79 204.923 1293.11 210.57 1282.1 222.145C1270.81 233.438 1265.16 248.966 1265.16 268.447C1265.16 287.928 1270.81 303.456 1282.1 314.749C1293.39 326.042 1308.07 331.971 1326.13 331.971C1338.27 331.971 1349 328.866 1358.6 322.372C1368.2 315.879 1375.25 307.126 1379.49 296.115L1380.62 293.01L1356.62 287.928L1355.78 289.904C1352.95 295.833 1348.72 300.633 1343.64 304.021C1338.27 307.409 1332.35 309.103 1325.85 309.103C1315.97 309.103 1307.79 305.997 1301.29 299.503C1295.36 293.575 1291.98 285.387 1291.13 274.658H1382.03L1382.31 266.471C1382.31 246.99 1376.95 231.744 1366.78 221.298C1356.06 210.287 1342.23 204.923 1325.29 204.923ZM1292.26 252.919C1293.95 244.731 1297.62 238.238 1302.99 234.003C1308.91 228.921 1316.54 226.38 1325.29 226.38C1334.04 226.38 1341.1 228.921 1346.46 234.003C1351.26 238.52 1354.36 244.731 1355.49 253.201H1292.26V252.919Z"
       fill="white"
       id="path12" />
    <path
       d="M1444.42 212.264C1440.46 214.804 1437.08 217.628 1434.25 220.733V206.899H1408.56V329.148H1434.82V264.212C1434.82 252.354 1437.64 243.884 1443.29 238.52C1448.93 233.156 1457.4 230.615 1468.41 230.615H1471.23V205.488H1468.41C1459.66 205.77 1451.47 208.029 1444.42 212.264Z"
       fill="white"
       id="path13" />
    <path
       d="M1515.84 207.182H1489.58V329.43H1515.84V207.182Z"
       fill="white"
       id="path14" />
    <path
       d="M1609.84 204.923C1596.85 204.923 1586.13 208.876 1578.22 217.063V207.182H1551.97V329.43H1578.22V256.872C1578.22 247.272 1580.76 239.932 1585.56 235.132C1590.36 230.333 1596.57 228.074 1604.19 228.074C1610.97 228.074 1616.33 230.05 1620.57 234.003C1624.8 237.956 1626.78 244.167 1626.78 252.919V329.713H1653.03V248.119C1653.03 234.568 1649.08 223.839 1641.17 216.216C1633.27 208.593 1622.82 204.923 1609.84 204.923Z"
       fill="white"
       id="path15" />
    <path
       d="M1771.31 207.182L1771.03 222.427C1767.64 218.475 1763.41 214.805 1758.61 211.981C1750.99 207.464 1742.24 204.923 1732.64 204.923C1717.11 204.923 1703.56 210.57 1692.83 222.145C1682.11 233.438 1676.46 248.119 1676.46 265.342C1676.46 282.564 1681.82 297.245 1692.83 308.82C1703.56 320.396 1717.11 326.042 1732.64 326.042C1741.95 326.042 1750.42 323.784 1758.33 319.266C1763.12 316.443 1767.36 313.055 1770.75 309.103V321.525C1770.75 334.512 1767.92 344.394 1762 351.452C1756.35 358.51 1747.88 361.898 1736.87 361.898C1718.8 361.898 1706.95 353.711 1700.46 336.771L1699.33 333.948L1677.31 344.676L1678.15 347.217C1688.03 372.062 1708.08 384.767 1737.44 384.767C1756.07 384.767 1770.75 379.12 1781.19 368.11C1791.64 357.099 1797 341.006 1797 320.678V207.182H1771.31ZM1772.16 265.342C1772.16 275.788 1768.77 284.258 1761.71 291.881C1754.94 299.221 1746.75 302.891 1736.87 302.891C1727.27 302.891 1719.09 299.221 1712.31 292.163C1705.25 284.822 1701.87 276.07 1701.87 265.342C1701.87 254.331 1705.25 245.578 1712.03 238.238C1718.8 230.897 1726.99 227.509 1736.87 227.509C1746.75 227.509 1754.94 231.18 1761.71 238.52C1768.77 246.143 1772.16 254.895 1772.16 265.342Z"
       fill="white"
       id="path16" />
  </g>
  <defs
     id="defs16">
    <clipPath
       id="clip0_2_2">
      <rect
         width="1674"
         height="286"
         fill="white"
         transform="translate(123 127)"
         id="rect16" />
    </clipPath>
  </defs>
</svg>
